<svg version="1.0" xmlns="http://www.w3.org/2000/svg" width="800.000000" height="800.000000" viewBox="0 0 800.000000 800.000000" preserveAspectRatio="xMidYMid meet">
  <metadata>
    <rdf:RDF xmlns:rdf="http://www.w3.org/1999/02/22-rdf-syntax-ns#" xmlns:rdfs="http://www.w3.org/2000/01/rdf-schema#" xmlns:dc="http://purl.org/dc/elements/1.1/">
      <rdf:Description dc:format="image/svg+xml" dc:Label="1" dc:ContentProducer="001191330110MACRLGPT8B00000" dc:ProduceID="353141530" dc:ReservedCode1="1zdDYmhm2/gax5KVDZqzBs51FJqzKMera2dr/wOOXFc=" dc:ContentPropagator="001191330110MACRLGPT8B00000" dc:PropagateID="353141530" dc:ReservedCode2="1zdDYmhm2/gax5KVDZqzBs51FJqzKMera2dr/wOOXFc="/>
    </rdf:RDF>
  </metadata>
  <g transform="translate(0.000000,800.000000) scale(0.100000,-0.100000)" fill="#000000" stroke="none">
    <path d="M3200 6119 c-152 -5 -230 -11 -300 -27 -518 -113 -888 -471 -980 -950 -40 -206 -45 -344 -45 -1127 0 -800 6 -925 55 -1130 85 -362 303 -640 630 -805 208 -104 391 -146 700 -161 251 -12 1288 -4 1506 12 444 32 716 140 960 383 253 252 359 523 395 1016 16 217 17 1331 1 1531 -25 318 -80 493 -217 699 -152 228 -356 387 -615 478 -127 45 -249 61 -525 72 -299 12 -1277 17 -1565 9z m1385 -129 c446 -9 522 -17 678 -70 330 -114 602 -410 693 -755 37 -141 44 -232 54 -663 15 -665 -7 -1312 -51 -1511 -44 -200 -138 -399 -246 -520 l-40 -45 -41 34 c-23 18 -42 36 -42 39 0 3 32 39 70 80 39 40 70 82 70 92 0 39 -39 18 -107 -56 -38 -41 -72 -75 -75 -75 -4 0 -39 27 -78 60 -73 61 -93 70 -106 48 -5 -8 20 -37 66 -80 l74 -68 -30 -31 c-16 -17 -71 -67 -122 -111 l-93 -81 -52 50 c-29 28 -60 55 -70 60 -16 8 -9 16 50 54 66 43 88 74 60 84 -7 3 -66 -27 -131 -68 -134 -85 -169 -113 -163 -130 7 -19 45 -9 93 24 25 17 46 29 47 27 1 -2 29 -32 62 -66 l60 -63 -49 -43 c-30 -26 -47 -47 -42 -54 12 -21 39 -13 85 23 l44 35 24 -22 c13 -12 20 -25 16 -29 -5 -3 -45 -19 -91 -34 -93 -30 -87 -31 -167 39 l-40 36 49 44 c34 30 47 48 43 60 -9 22 -18 20 -58 -9 -63 -46 -75 -50 -104 -31 -14 9 -30 14 -35 11 -20 -13 -9 -46 20 -63 29 -17 48 -47 36 -60 -4 -3 -13 4 -22 16 -8 12 -26 22 -40 22 -35 0 -31 -33 8 -64 30 -23 32 -27 17 -41 -23 -23 -81 -34 -176 -35 l-81 0 -44 67 c-23 38 -45 71 -46 76 -2 4 71 43 162 87 160 76 191 99 168 122 -8 8 -62 -14 -187 -73 -194 -91 -178 -90 -217 -20 -19 35 -44 49 -59 34 -7 -7 0 -29 21 -66 l31 -56 -68 -34 c-37 -19 -113 -60 -168 -91 l-100 -56 -480 0 c-521 0 -596 5 -785 51 -291 70 -528 230 -679 460 -168 254 -199 440 -208 1229 -8 749 13 1228 62 1421 21 80 89 227 144 308 178 262 508 450 840 480 128 11 1022 12 1546 1z m1010 -3565 l40 -34 -25 -26 c-41 -44 -55 -47 -94 -24 -32 19 -37 19 -42 4 -4 -10 2 -25 16 -40 l22 -23 -38 -25 c-57 -35 -101 -57 -116 -57 -7 1 -24 10 -38 21 l-25 21 55 47 c30 25 84 74 120 108 36 35 70 63 75 62 6 0 28 -15 50 -34z m-1046 -309 c18 -30 34 -59 34 -63 1 -4 -71 -10 -160 -13 -88 -3 -159 -2 -156 3 2 4 39 26 81 50 42 23 91 50 107 59 47 26 58 22 94 -36z m468 -6 c17 -13 20 -20 11 -20 -8 0 -23 9 -33 20 -10 11 -15 20 -11 20 4 0 19 -9 33 -20z"/>
    <path d="M3619 5071 c-100 -8 -150 -27 -176 -69 -9 -16 -27 -20 -95 -24 -140 -9 -221 -65 -254 -175 -53 -176 -32 -1547 27 -1738 31 -103 97 -156 217 -175 73 -12 465 -12 558 0 137 18 170 37 333 194 80 77 245 232 366 342 248 228 270 250 383 388 112 136 115 169 32 275 -67 85 -65 70 -70 391 -5 272 -7 298 -26 340 -32 69 -98 123 -175 144 -52 14 -68 24 -82 47 -35 62 -48 64 -517 65 -234 1 -468 -1 -521 -5z m844 -118 c74 -7 81 -15 44 -55 l-23 -25 -432 -6 c-452 -7 -475 -5 -488 36 -11 34 12 42 144 48 182 8 675 10 755 2z m-1002 -119 c7 -14 34 -40 59 -58 l45 -31 475 4 c375 2 481 6 501 17 15 7 43 33 62 56 l36 43 48 -13 c61 -16 93 -39 115 -83 16 -30 18 -67 18 -304 0 -157 4 -286 11 -308 5 -20 30 -67 55 -103 25 -37 48 -72 51 -80 5 -14 -45 -87 -57 -82 -22 9 -169 188 -165 200 11 29 -33 51 -128 64 -216 30 -707 27 -1012 -7 -108 -12 -135 -26 -135 -73 0 -59 10 -62 213 -46 219 16 679 24 760 13 l58 -8 -121 -109 -122 -109 -231 -3 c-292 -3 -515 -20 -539 -41 -27 -24 -31 -51 -13 -80 l17 -25 112 6 c229 12 516 19 516 11 0 -4 -52 -63 -116 -132 l-117 -124 -22 21 c-22 20 -31 21 -195 18 -167 -3 -172 -4 -191 -27 -27 -33 -24 -67 7 -87 22 -15 44 -16 171 -11 114 5 144 4 140 -6 -2 -7 -29 -46 -58 -88 -30 -41 -76 -115 -104 -163 l-49 -89 -111 6 c-132 7 -154 14 -190 61 -31 41 -39 101 -54 431 -31 630 -22 1214 18 1293 25 50 73 71 162 71 61 1 67 -1 80 -25z m1252 -939 c48 -55 87 -103 87 -107 0 -8 -272 -266 -345 -328 -27 -23 -122 -111 -211 -195 l-161 -154 -86 87 c-48 48 -87 92 -87 98 0 19 242 275 416 440 267 253 278 264 290 261 6 -1 50 -47 97 -102z m-735 -866 c-7 -4 -50 -10 -97 -13 -47 -4 -107 -9 -133 -12 -29 -3 -48 -1 -48 5 0 11 84 145 108 174 15 17 21 13 99 -65 53 -53 78 -85 71 -89z"/>
    <path d="M3644 4496 c-174 -12 -208 -23 -220 -72 -8 -31 21 -66 57 -67 13 0 92 5 174 13 88 7 312 13 543 14 335 1 394 4 402 16 22 35 2 76 -45 96 -28 11 -104 14 -392 13 -197 -1 -430 -7 -519 -13z"/>
  </g>
</svg>